<svg xmlns="http://www.w3.org/2000/svg" xmlns:xlink="http://www.w3.org/1999/xlink" width="756" zoomAndPan="magnify" viewBox="0 0 567 567.000005" height="756" preserveAspectRatio="xMidYMid meet" version="1.2"><defs><clipPath id="08b2b91350"><path d="M 77.613281 281.046875 L 206.203125 281.046875 L 206.203125 344.234375 L 77.613281 344.234375 Z M 77.613281 281.046875 "/></clipPath><clipPath id="0ed81ac984"><path d="M 93.746094 338.058594 C 93.914062 328.324219 94.074219 318.59375 94.242188 308.871094 C 94.503906 307.390625 95.421875 303.238281 99.074219 299.734375 C 101.910156 297.011719 104.996094 296.023438 106.492188 295.640625 C 129.472656 295.472656 152.441406 295.304688 175.421875 295.125 C 177.859375 295.492188 182.621094 296.609375 185.84375 300.5625 C 188.507812 303.839844 188.859375 307.53125 189.089844 310.398438 C 189.578125 316.515625 190.046875 325.789062 189.6875 337.890625 C 189.90625 338.6875 190.695312 341.125 193.082031 342.742188 C 195.945312 344.6875 199.871094 344.585938 202.664062 342.671875 C 205.25 340.902344 206 338.207031 206.1875 337.410156 C 206.128906 327.6875 206.070312 317.953125 206.019531 308.230469 C 205.621094 305.097656 204.589844 300.515625 201.695312 295.84375 C 194.609375 284.402344 182.152344 281.6875 179.457031 281.15625 C 153.871094 281.128906 128.273438 281.085938 102.679688 281.046875 C 99.84375 281.617188 96.230469 282.726562 92.535156 285 C 81.816406 291.597656 78.621094 302.890625 77.824219 306.113281 C 77.753906 316.695312 77.683594 327.289062 77.613281 337.867188 C 78.542969 341.613281 81.914062 344.246094 85.738281 344.226562 C 89.460938 344.21875 92.757812 341.683594 93.746094 338.058594 "/></clipPath><clipPath id="803edbb9da"><path d="M 14.21875 92.660156 L 522 92.660156 L 522 210.515625 L 14.21875 210.515625 Z M 14.21875 92.660156 "/></clipPath><clipPath id="ce62edc2ef"><path d="M 14.441406 161.125 C 31.632812 170.117188 48.820312 179.113281 66.011719 188.105469 C 86.4375 178.671875 117.082031 165.476562 155.914062 152.347656 C 168.953125 147.945312 175.472656 145.738281 183.417969 143.582031 C 208.851562 136.675781 257.847656 123.367188 311.992188 137.914062 C 329.382812 142.585938 359.960938 153.527344 391.585938 181.578125 C 406.449219 183.34375 422.074219 185.699219 438.34375 188.796875 C 469.128906 194.65625 497.050781 202.183594 521.890625 210.277344 C 509.402344 201.851562 496.902344 193.425781 484.414062 185.011719 C 484.472656 154.304688 484.535156 123.589844 484.582031 92.882812 L 70.824219 92.882812 C 70.652344 115.742188 70.484375 138.601562 70.304688 161.460938 C 51.675781 161.351562 33.058594 161.234375 14.441406 161.125 "/></clipPath><clipPath id="e66f8f8081"><path d="M 40.105469 151.246094 L 532.644531 151.246094 L 532.644531 257.519531 L 40.105469 257.519531 Z M 40.105469 151.246094 "/></clipPath><clipPath id="0d847c5c79"><path d="M 51.226562 225.929688 C 63.144531 226.558594 75.066406 227.1875 86.984375 227.816406 C 92.015625 222.417969 94.390625 216.257812 92.316406 212.34375 C 91.085938 210.039062 88.523438 208.878906 84.75 207.183594 C 80.714844 205.367188 77.101562 204.609375 74.605469 204.257812 C 78.558594 201.621094 82.511719 198.988281 86.464844 196.351562 C 124.910156 194.683594 163.363281 193.027344 201.804688 191.371094 C 182.929688 188.246094 164.050781 185.121094 145.164062 182.007812 C 181.269531 163.320312 213.386719 156.902344 233.769531 154.414062 C 257.328125 151.539062 285.609375 148.425781 318.800781 160.023438 C 339.085938 167.121094 354.0625 177.226562 363.503906 184.664062 C 363.285156 185.070312 362.835938 185.761719 362.046875 186.339844 C 360.828125 187.21875 359.5625 187.289062 359.082031 187.289062 C 327.597656 186.167969 301.621094 187.816406 282.503906 189.824219 C 258.488281 192.339844 243.492188 195.601562 237.554688 196.960938 C 222.578125 200.386719 210.089844 204.328125 200.707031 207.640625 C 200.585938 207.691406 199.5 208.152344 199.179688 209.339844 C 198.910156 210.335938 199.371094 211.144531 199.460938 211.296875 C 237.175781 207.382812 269.269531 205.375 293.824219 204.269531 C 329.304688 202.671875 366.609375 201.105469 415.472656 204.269531 C 434.890625 205.527344 450.933594 207.191406 461.972656 208.480469 C 470.886719 209.789062 480.679688 211.726562 491.113281 214.582031 C 497.320312 216.289062 503.140625 218.144531 508.5625 220.082031 C 495.355469 220.230469 482.148438 220.390625 468.941406 220.539062 C 481.429688 228.347656 493.925781 236.164062 506.414062 243.96875 C 515.152344 244.457031 523.894531 244.949219 532.628906 245.425781 L 532.628906 257.296875 C 368.675781 257.207031 204.710938 257.125 40.753906 257.035156 C 44.25 246.664062 47.742188 236.292969 51.238281 225.921875 "/></clipPath><clipPath id="fc234e4192"><path d="M 70.433594 406.414062 L 483.882812 406.414062 L 483.882812 427.558594 L 70.433594 427.558594 Z M 70.433594 406.414062 "/></clipPath><clipPath id="0f90c34e91"><path d="M 221.644531 281 L 356 281 L 356 344.230469 L 221.644531 344.230469 Z M 221.644531 281 "/></clipPath><clipPath id="e122ade92c"><path d="M 340.808594 313.652344 C 340.660156 315.507812 339.800781 322.753906 333.363281 327.175781 C 328.3125 330.640625 322.960938 330.210938 321.441406 330.042969 C 298.441406 330.003906 275.453125 329.960938 252.453125 329.921875 C 250.757812 329.863281 246.902344 329.484375 243.339844 326.769531 C 237.679688 322.457031 237.21875 315.636719 237.089844 313.761719 C 236.949219 311.734375 236.691406 306.511719 240.292969 301.671875 C 244.496094 296.03125 250.828125 295.125 252.042969 294.964844 L 325.386719 294.964844 C 327.113281 295.054688 331.324219 295.523438 335.070312 298.628906 C 341.347656 303.839844 340.929688 311.972656 340.800781 313.640625 M 345.382812 287.914062 C 340.050781 283.34375 334.28125 281.847656 331.167969 281.265625 C 316.921875 281.238281 302.675781 281.207031 288.421875 281.175781 C 274.285156 281.148438 260.148438 281.117188 246.023438 281.085938 C 243.21875 281.9375 232.777344 285.46875 226.429688 296.160156 C 224.652344 299.1875 221.746094 305.195312 221.855469 313.132812 C 221.898438 315.835938 222.386719 326.140625 230.5625 334.675781 C 237.050781 341.453125 244.738281 343.300781 247.632812 343.839844 C 263.984375 343.898438 280.335938 343.957031 296.675781 344.007812 C 307.828125 343.96875 318.988281 343.929688 330.136719 343.886719 C 333.03125 343.320312 337.675781 342.019531 342.347656 338.726562 C 354.824219 329.921875 355.851562 315.109375 355.921875 313.800781 C 356.03125 311.785156 356.523438 297.460938 345.382812 287.90625 "/></clipPath><clipPath id="44d59d7a50"><path d="M 358.730469 277.332031 L 477.300781 277.332031 L 477.300781 343.933594 L 358.730469 343.933594 Z M 358.730469 277.332031 "/></clipPath><clipPath id="ab296464b3"><path d="M 359.347656 333.964844 C 367.621094 323.644531 376.40625 313.140625 385.730469 302.511719 C 391.582031 295.84375 397.402344 289.402344 403.179688 283.175781 C 406.097656 280.636719 408.941406 279.402344 410.699219 278.792969 C 412.246094 278.253906 418.453125 276.285156 425.613281 278.792969 C 428.597656 279.828125 430.773438 281.308594 432.101562 282.355469 C 436.023438 286.769531 439.945312 291.230469 443.878906 295.722656 C 455.191406 308.667969 466.171875 321.566406 476.84375 334.394531 C 477.042969 335.003906 477.609375 337 476.710938 339.167969 C 476.015625 340.851562 474.804688 341.742188 474.085938 342.261719 C 471.660156 344.007812 469.046875 343.96875 468.066406 343.898438 C 466.261719 343.769531 464.894531 343.128906 464.113281 342.691406 C 449.558594 326.1875 435.003906 309.6875 420.449219 293.1875 C 420.050781 292.945312 418.992188 292.367188 417.574219 292.457031 C 416.578125 292.519531 415.828125 292.878906 415.429688 293.097656 C 401.375 308.980469 387.328125 324.871094 373.273438 340.753906 C 372.824219 341.300781 371.105469 343.289062 368.113281 343.808594 C 367.792969 343.867188 364.378906 344.398438 361.535156 342.171875 C 361.125 341.851562 360.34375 341.234375 359.726562 340.15625 C 358.199219 337.488281 359.117188 334.613281 359.335938 333.964844 "/></clipPath><clipPath id="d79545f5c7"><path d="M 407.710938 319 L 428.320312 319 L 428.320312 337.363281 L 407.710938 337.363281 Z M 407.710938 319 "/></clipPath><clipPath id="73e19bb37e"><path d="M 428.257812 328.175781 C 428.257812 333.175781 423.664062 337.230469 417.996094 337.230469 C 412.324219 337.230469 407.734375 333.175781 407.734375 328.175781 C 407.734375 323.175781 412.324219 319.121094 417.996094 319.121094 C 423.664062 319.121094 428.257812 323.175781 428.257812 328.175781 "/></clipPath></defs><g id="444ca5d2b0"><g clip-rule="nonzero" clip-path="url(#08b2b91350)"><g clip-rule="nonzero" clip-path="url(#0ed81ac984)"><path style=" stroke:none;fill-rule:nonzero;fill:#231f20;fill-opacity:1;" d="M 77.613281 281.046875 L 206.203125 281.046875 L 206.203125 344.234375 L 77.613281 344.234375 Z M 77.613281 281.046875 "/></g></g><g clip-rule="nonzero" clip-path="url(#803edbb9da)"><g clip-rule="nonzero" clip-path="url(#ce62edc2ef)"><path style=" stroke:none;fill-rule:nonzero;fill:#0878bc;fill-opacity:1;" d="M 9.449219 87.890625 L 537.410156 87.890625 L 537.410156 262.289062 L 9.449219 262.289062 Z M 9.449219 87.890625 "/></g></g><g clip-rule="nonzero" clip-path="url(#e66f8f8081)"><g clip-rule="nonzero" clip-path="url(#0d847c5c79)"><path style=" stroke:none;fill-rule:nonzero;fill:#0878bc;fill-opacity:1;" d="M 9.449219 87.890625 L 537.410156 87.890625 L 537.410156 262.289062 L 9.449219 262.289062 Z M 9.449219 87.890625 "/></g></g><g clip-rule="nonzero" clip-path="url(#fc234e4192)"><path style=" stroke:none;fill-rule:nonzero;fill:#0878bc;fill-opacity:1;" d="M 70.433594 406.414062 L 483.882812 406.414062 L 483.882812 427.558594 L 70.433594 427.558594 Z M 70.433594 406.414062 "/></g><g clip-rule="nonzero" clip-path="url(#0f90c34e91)"><g clip-rule="nonzero" clip-path="url(#e122ade92c)"><path style=" stroke:none;fill-rule:nonzero;fill:#231f20;fill-opacity:1;" d="M 216.867188 272.550781 L 482.078125 272.550781 L 482.078125 349.011719 L 216.867188 349.011719 Z M 216.867188 272.550781 "/></g></g><g clip-rule="nonzero" clip-path="url(#44d59d7a50)"><g clip-rule="nonzero" clip-path="url(#ab296464b3)"><path style=" stroke:none;fill-rule:nonzero;fill:#231f20;fill-opacity:1;" d="M 216.867188 272.550781 L 482.078125 272.550781 L 482.078125 349.011719 L 216.867188 349.011719 Z M 216.867188 272.550781 "/></g></g><g clip-rule="nonzero" clip-path="url(#d79545f5c7)"><g clip-rule="nonzero" clip-path="url(#73e19bb37e)"><path style=" stroke:none;fill-rule:nonzero;fill:#231f20;fill-opacity:1;" d="M 216.867188 272.550781 L 482.078125 272.550781 L 482.078125 349.011719 L 216.867188 349.011719 Z M 216.867188 272.550781 "/></g></g><g style="fill:#231f20;fill-opacity:1;"><g transform="translate(132.436984, 395.916821)"><path style="stroke:none" d="M 13.796875 0 L 9.75 0 L 6.53125 -7.75 L 5.359375 -6.6875 L 5.359375 0 L 1.703125 0 L 1.703125 -19.015625 L 5.359375 -19.015625 L 5.359375 -10.25 C 5.429688 -10.582031 5.570312 -10.957031 5.78125 -11.375 C 5.988281 -11.800781 6.226562 -12.28125 6.5 -12.8125 L 9.828125 -19.015625 L 13.75 -19.015625 L 9.109375 -10.546875 Z M 13.796875 0 "/></g></g><g style="fill:#231f20;fill-opacity:1;"><g transform="translate(155.354605, 395.916821)"><path style="stroke:none" d="M 5.359375 0 L 1.703125 0 L 1.703125 -19.015625 L 10.203125 -19.015625 L 10.203125 -15.90625 L 5.359375 -15.90625 L 5.359375 -10.734375 L 9.890625 -10.734375 L 9.890625 -7.625 L 5.359375 -7.625 Z M 5.359375 0 "/></g></g><g style="fill:#231f20;fill-opacity:1;"><g transform="translate(175.683929, 395.916821)"><path style="stroke:none" d="M 10.84375 0 L 0.609375 0 L 0.609375 -2.609375 L 6.765625 -15.890625 L 0.71875 -15.890625 L 0.71875 -19.015625 L 10.671875 -19.015625 L 10.671875 -16.421875 L 4.53125 -3.171875 L 10.84375 -3.171875 Z M 10.84375 0 "/></g></g><g style="fill:#231f20;fill-opacity:1;"><g transform="translate(196.390448, 395.916821)"><path style="stroke:none" d="M 0.734375 -5.484375 L 0.734375 -8.8125 L 7.375 -8.8125 L 7.375 -5.484375 Z M 0.734375 -5.484375 "/></g></g><g style="fill:#231f20;fill-opacity:1;"><g transform="translate(213.819332, 395.916821)"><path style="stroke:none" d="M 6.53125 -19.015625 C 8.46875 -19.015625 9.90625 -18.515625 10.84375 -17.515625 C 11.78125 -16.515625 12.25 -15.054688 12.25 -13.140625 C 12.25 -12.171875 12.128906 -11.296875 11.890625 -10.515625 C 11.648438 -9.734375 11.285156 -9.0625 10.796875 -8.5 C 10.316406 -7.9375 9.707031 -7.5 8.96875 -7.1875 C 8.238281 -6.882812 7.367188 -6.734375 6.359375 -6.734375 L 5.359375 -6.734375 L 5.359375 0 L 1.703125 0 L 1.703125 -19.015625 Z M 6.25 -15.90625 L 5.359375 -15.90625 L 5.359375 -9.859375 L 6 -9.859375 C 6.582031 -9.859375 7.066406 -9.96875 7.453125 -10.1875 C 7.835938 -10.40625 8.128906 -10.75 8.328125 -11.21875 C 8.535156 -11.695312 8.640625 -12.328125 8.640625 -13.109375 C 8.640625 -14.078125 8.441406 -14.785156 8.046875 -15.234375 C 7.648438 -15.679688 7.050781 -15.90625 6.25 -15.90625 Z M 6.25 -15.90625 "/></g></g><g style="fill:#231f20;fill-opacity:1;"><g transform="translate(236.177668, 395.916821)"><path style="stroke:none" d="M 7.828125 -14.84375 C 8.015625 -14.84375 8.195312 -14.828125 8.375 -14.796875 C 8.5625 -14.765625 8.78125 -14.710938 9.03125 -14.640625 L 8.71875 -10.953125 C 8.539062 -11.023438 8.347656 -11.070312 8.140625 -11.09375 C 7.941406 -11.125 7.722656 -11.140625 7.484375 -11.140625 C 7.078125 -11.140625 6.71875 -11.050781 6.40625 -10.875 C 6.09375 -10.695312 5.832031 -10.445312 5.625 -10.125 C 5.414062 -9.800781 5.253906 -9.410156 5.140625 -8.953125 C 5.035156 -8.492188 4.984375 -7.984375 4.984375 -7.421875 L 4.984375 0 L 1.515625 0 L 1.515625 -14.5625 L 4.1875 -14.5625 L 4.6875 -12.171875 L 4.859375 -12.171875 C 5.046875 -12.628906 5.28125 -13.0625 5.5625 -13.46875 C 5.851562 -13.882812 6.1875 -14.21875 6.5625 -14.46875 C 6.945312 -14.71875 7.367188 -14.84375 7.828125 -14.84375 Z M 7.828125 -14.84375 "/></g></g><g style="fill:#231f20;fill-opacity:1;"><g transform="translate(254.72511, 395.916821)"><path style="stroke:none" d="M 11.84375 -14.5625 L 11.84375 0 L 9.125 0 L 8.734375 -1.859375 L 8.546875 -1.859375 C 8.328125 -1.390625 8.0625 -1 7.75 -0.6875 C 7.4375 -0.375 7.078125 -0.140625 6.671875 0.015625 C 6.273438 0.179688 5.828125 0.265625 5.328125 0.265625 C 4.472656 0.265625 3.757812 0.0507812 3.1875 -0.375 C 2.613281 -0.800781 2.179688 -1.410156 1.890625 -2.203125 C 1.609375 -2.992188 1.46875 -3.945312 1.46875 -5.0625 L 1.46875 -14.5625 L 4.9375 -14.5625 L 4.9375 -6.09375 C 4.9375 -5.007812 5.039062 -4.191406 5.25 -3.640625 C 5.46875 -3.097656 5.820312 -2.828125 6.3125 -2.828125 C 6.894531 -2.828125 7.332031 -2.992188 7.625 -3.328125 C 7.914062 -3.671875 8.113281 -4.164062 8.21875 -4.8125 C 8.332031 -5.457031 8.390625 -6.242188 8.390625 -7.171875 L 8.390625 -14.5625 Z M 2.625 -18.140625 C 2.625 -18.734375 2.769531 -19.175781 3.0625 -19.46875 C 3.351562 -19.769531 3.738281 -19.921875 4.21875 -19.921875 C 4.71875 -19.921875 5.113281 -19.765625 5.40625 -19.453125 C 5.695312 -19.140625 5.84375 -18.703125 5.84375 -18.140625 C 5.84375 -17.597656 5.695312 -17.171875 5.40625 -16.859375 C 5.113281 -16.546875 4.71875 -16.390625 4.21875 -16.390625 C 3.738281 -16.390625 3.351562 -16.535156 3.0625 -16.828125 C 2.769531 -17.128906 2.625 -17.566406 2.625 -18.140625 Z M 7.453125 -18.140625 C 7.453125 -18.734375 7.597656 -19.175781 7.890625 -19.46875 C 8.179688 -19.769531 8.578125 -19.921875 9.078125 -19.921875 C 9.566406 -19.921875 9.957031 -19.765625 10.25 -19.453125 C 10.550781 -19.140625 10.703125 -18.703125 10.703125 -18.140625 C 10.703125 -17.597656 10.550781 -17.171875 10.25 -16.859375 C 9.957031 -16.546875 9.566406 -16.390625 9.078125 -16.390625 C 8.578125 -16.390625 8.179688 -16.539062 7.890625 -16.84375 C 7.597656 -17.15625 7.453125 -17.585938 7.453125 -18.140625 Z M 7.453125 -18.140625 "/></g></g><g style="fill:#231f20;fill-opacity:1;"><g transform="translate(277.369589, 395.916821)"><path style="stroke:none" d="M 7.703125 -11.6875 L 5.359375 -11.6875 L 5.359375 0 L 1.890625 0 L 1.890625 -11.6875 L 0.203125 -11.6875 L 0.203125 -13.546875 L 1.890625 -14.5625 L 1.890625 -15.03125 C 1.890625 -16.257812 2.015625 -17.265625 2.265625 -18.046875 C 2.515625 -18.835938 2.914062 -19.425781 3.46875 -19.8125 C 4.03125 -20.195312 4.765625 -20.390625 5.671875 -20.390625 C 6.179688 -20.390625 6.640625 -20.34375 7.046875 -20.25 C 7.460938 -20.15625 7.945312 -20.003906 8.5 -19.796875 L 7.75 -17.1875 C 7.507812 -17.257812 7.28125 -17.316406 7.0625 -17.359375 C 6.84375 -17.410156 6.625 -17.4375 6.40625 -17.4375 C 6.03125 -17.4375 5.757812 -17.273438 5.59375 -16.953125 C 5.4375 -16.628906 5.359375 -16.066406 5.359375 -15.265625 L 5.359375 -14.5625 L 7.703125 -14.5625 Z M 7.703125 -11.6875 "/></g></g><g style="fill:#231f20;fill-opacity:1;"><g transform="translate(294.60337, 395.916821)"><path style="stroke:none" d="M 4.953125 -20.234375 L 4.953125 -15.1875 C 4.953125 -14.90625 4.945312 -14.554688 4.9375 -14.140625 C 4.925781 -13.734375 4.898438 -13.25 4.859375 -12.6875 L 4.984375 -12.6875 C 5.359375 -13.425781 5.8125 -13.960938 6.34375 -14.296875 C 6.882812 -14.640625 7.488281 -14.8125 8.15625 -14.8125 C 9.476562 -14.8125 10.507812 -14.15625 11.25 -12.84375 C 11.988281 -11.539062 12.359375 -9.703125 12.359375 -7.328125 C 12.359375 -5.742188 12.191406 -4.382812 11.859375 -3.25 C 11.523438 -2.125 11.039062 -1.253906 10.40625 -0.640625 C 9.769531 -0.0351562 9.003906 0.265625 8.109375 0.265625 C 7.441406 0.265625 6.867188 0.132812 6.390625 -0.125 C 5.921875 -0.394531 5.453125 -0.878906 4.984375 -1.578125 L 4.796875 -1.578125 L 4.296875 0 L 1.5 0 L 1.5 -20.234375 Z M 6.984375 -11.828125 C 6.472656 -11.828125 6.066406 -11.660156 5.765625 -11.328125 C 5.472656 -11.003906 5.265625 -10.535156 5.140625 -9.921875 C 5.015625 -9.316406 4.953125 -8.578125 4.953125 -7.703125 L 4.953125 -6.984375 C 4.953125 -5.492188 5.113281 -4.398438 5.4375 -3.703125 C 5.769531 -3.015625 6.296875 -2.671875 7.015625 -2.671875 C 7.609375 -2.671875 8.0625 -3.050781 8.375 -3.8125 C 8.6875 -4.570312 8.84375 -5.75 8.84375 -7.34375 C 8.84375 -8.84375 8.691406 -9.960938 8.390625 -10.703125 C 8.097656 -11.453125 7.628906 -11.828125 6.984375 -11.828125 Z M 6.984375 -11.828125 "/></g></g><g style="fill:#231f20;fill-opacity:1;"><g transform="translate(317.221836, 395.916821)"><path style="stroke:none" d="M 11.84375 -14.5625 L 11.84375 0 L 9.125 0 L 8.734375 -1.859375 L 8.546875 -1.859375 C 8.328125 -1.390625 8.0625 -1 7.75 -0.6875 C 7.4375 -0.375 7.078125 -0.140625 6.671875 0.015625 C 6.273438 0.179688 5.828125 0.265625 5.328125 0.265625 C 4.472656 0.265625 3.757812 0.0507812 3.1875 -0.375 C 2.613281 -0.800781 2.179688 -1.410156 1.890625 -2.203125 C 1.609375 -2.992188 1.46875 -3.945312 1.46875 -5.0625 L 1.46875 -14.5625 L 4.9375 -14.5625 L 4.9375 -6.09375 C 4.9375 -5.007812 5.039062 -4.191406 5.25 -3.640625 C 5.46875 -3.097656 5.820312 -2.828125 6.3125 -2.828125 C 6.894531 -2.828125 7.332031 -2.992188 7.625 -3.328125 C 7.914062 -3.671875 8.113281 -4.164062 8.21875 -4.8125 C 8.332031 -5.457031 8.390625 -6.242188 8.390625 -7.171875 L 8.390625 -14.5625 Z M 2.625 -18.140625 C 2.625 -18.734375 2.769531 -19.175781 3.0625 -19.46875 C 3.351562 -19.769531 3.738281 -19.921875 4.21875 -19.921875 C 4.71875 -19.921875 5.113281 -19.765625 5.40625 -19.453125 C 5.695312 -19.140625 5.84375 -18.703125 5.84375 -18.140625 C 5.84375 -17.597656 5.695312 -17.171875 5.40625 -16.859375 C 5.113281 -16.546875 4.71875 -16.390625 4.21875 -16.390625 C 3.738281 -16.390625 3.351562 -16.535156 3.0625 -16.828125 C 2.769531 -17.128906 2.625 -17.566406 2.625 -18.140625 Z M 7.453125 -18.140625 C 7.453125 -18.734375 7.597656 -19.175781 7.890625 -19.46875 C 8.179688 -19.769531 8.578125 -19.921875 9.078125 -19.921875 C 9.566406 -19.921875 9.957031 -19.765625 10.25 -19.453125 C 10.550781 -19.140625 10.703125 -18.703125 10.703125 -18.140625 C 10.703125 -17.597656 10.550781 -17.171875 10.25 -16.859375 C 9.957031 -16.546875 9.566406 -16.390625 9.078125 -16.390625 C 8.578125 -16.390625 8.179688 -16.539062 7.890625 -16.84375 C 7.597656 -17.15625 7.453125 -17.585938 7.453125 -18.140625 Z M 7.453125 -18.140625 "/></g></g><g style="fill:#231f20;fill-opacity:1;"><g transform="translate(339.866303, 395.916821)"><path style="stroke:none" d="M 7.828125 -14.84375 C 8.015625 -14.84375 8.195312 -14.828125 8.375 -14.796875 C 8.5625 -14.765625 8.78125 -14.710938 9.03125 -14.640625 L 8.71875 -10.953125 C 8.539062 -11.023438 8.347656 -11.070312 8.140625 -11.09375 C 7.941406 -11.125 7.722656 -11.140625 7.484375 -11.140625 C 7.078125 -11.140625 6.71875 -11.050781 6.40625 -10.875 C 6.09375 -10.695312 5.832031 -10.445312 5.625 -10.125 C 5.414062 -9.800781 5.253906 -9.410156 5.140625 -8.953125 C 5.035156 -8.492188 4.984375 -7.984375 4.984375 -7.421875 L 4.984375 0 L 1.515625 0 L 1.515625 -14.5625 L 4.1875 -14.5625 L 4.6875 -12.171875 L 4.859375 -12.171875 C 5.046875 -12.628906 5.28125 -13.0625 5.5625 -13.46875 C 5.851562 -13.882812 6.1875 -14.21875 6.5625 -14.46875 C 6.945312 -14.71875 7.367188 -14.84375 7.828125 -14.84375 Z M 7.828125 -14.84375 "/></g></g><g style="fill:#231f20;fill-opacity:1;"><g transform="translate(358.413768, 395.916821)"><path style="stroke:none" d="M 12.046875 -7.328125 C 12.046875 -6.304688 11.941406 -5.335938 11.734375 -4.421875 C 11.535156 -3.515625 11.21875 -2.710938 10.78125 -2.015625 C 10.34375 -1.316406 9.769531 -0.757812 9.0625 -0.34375 C 8.351562 0.0625 7.492188 0.265625 6.484375 0.265625 C 5.535156 0.265625 4.710938 0.0664062 4.015625 -0.328125 C 3.328125 -0.734375 2.753906 -1.285156 2.296875 -1.984375 C 1.847656 -2.679688 1.515625 -3.488281 1.296875 -4.40625 C 1.078125 -5.320312 0.96875 -6.296875 0.96875 -7.328125 C 0.96875 -8.785156 1.160156 -10.082031 1.546875 -11.21875 C 1.929688 -12.351562 2.53125 -13.238281 3.34375 -13.875 C 4.164062 -14.519531 5.226562 -14.84375 6.53125 -14.84375 C 7.644531 -14.84375 8.613281 -14.550781 9.4375 -13.96875 C 10.269531 -13.382812 10.910156 -12.535156 11.359375 -11.421875 C 11.816406 -10.304688 12.046875 -8.941406 12.046875 -7.328125 Z M 4.46875 -7.265625 C 4.46875 -6.265625 4.539062 -5.421875 4.6875 -4.734375 C 4.832031 -4.046875 5.050781 -3.53125 5.34375 -3.1875 C 5.644531 -2.84375 6.03125 -2.671875 6.5 -2.671875 C 6.976562 -2.671875 7.363281 -2.835938 7.65625 -3.171875 C 7.945312 -3.515625 8.160156 -4.035156 8.296875 -4.734375 C 8.429688 -5.429688 8.5 -6.296875 8.5 -7.328125 C 8.5 -8.347656 8.429688 -9.195312 8.296875 -9.875 C 8.160156 -10.550781 7.945312 -11.054688 7.65625 -11.390625 C 7.363281 -11.734375 6.976562 -11.90625 6.5 -11.90625 C 5.789062 -11.90625 5.273438 -11.523438 4.953125 -10.765625 C 4.628906 -10.015625 4.46875 -8.847656 4.46875 -7.265625 Z M 4.46875 -7.265625 "/></g></g></g></svg>